<?xml version="1.0" encoding="utf-8"?>
<svg version="1.1" xmlns:xlink="http://www.w3.org/1999/xlink" width="175px" height="35px" xmlns="http://www.w3.org/2000/svg">
  <defs>
    <mask fill="white" id="clip144">
      <path d="M 0 35  L 0 0  L 65.3333333333334 0  L 107.555555555556 0  L 175 0  L 175 35  L 109.307692307692 35  L 0 35  Z " fill-rule="evenodd" />
    </mask>
  </defs>
  <g transform="matrix(1 0 0 1 -308 -1745 )">
    <path d="M 0 35  L 0 0  L 65.3333333333334 0  L 107.555555555556 0  L 175 0  L 175 35  L 109.307692307692 35  L 0 35  Z " fill-rule="nonzero" fill="#ffffff" stroke="none" fill-opacity="0" transform="matrix(1 0 0 1 308 1745 )" />
    <path d="M 0 35  L 0 0  L 65.3333333333334 0  L 107.555555555556 0  L 175 0  L 175 35  L 109.307692307692 35  L 0 35  Z " stroke-width="4" stroke="#797979" fill="none" transform="matrix(1 0 0 1 308 1745 )" mask="url(#clip144)" />
  </g>
</svg>