<?xml version="1.0" encoding="utf-8"?>
<svg version="1.1" xmlns:xlink="http://www.w3.org/1999/xlink" width="370px" height="200px" xmlns="http://www.w3.org/2000/svg">
  <g transform="matrix(1 0 0 1 -200 -1940 )">
    <path d="M 200 1940  L 570 1940  L 570 2140  L 200 2140  L 200 1940  " fill-rule="nonzero" fill="#cccccc" stroke="none" />
    <path d="M 214 1954  L 556 1954  L 556 2126  L 214 2126  L 214 1954  " fill-rule="nonzero" fill="#ffffff" stroke="none" />
    <path d="M 407.4 2000  C 399 2000  392.4 1993.4  392.4 1985  C 392.4 1976.6  399 1970  407.4 1970  C 415.8 1970  422.4 1976.6  422.4 1985  C 422.4 1993.4  415.8 2000  407.4 2000  " fill-rule="nonzero" fill="#cccccc" stroke="none" />
    <path d="M 219 2121  L 219 2031.9  L 302 1991.4  L 418.2 2068.45945945946  L 484.6 2015.7  L 551 2068.45945945946  L 551 2121  L 219 2121  " fill-rule="nonzero" fill="#169bd5" stroke="none" />
  </g>
</svg>