<?xml version="1.0" encoding="utf-8"?>
<svg version="1.1" xmlns:xlink="http://www.w3.org/1999/xlink" width="195px" height="115px" xmlns="http://www.w3.org/2000/svg">
  <g transform="matrix(1 0 0 1 -200 -1125 )">
    <path d="M 200 1125  L 395 1125  L 395 1240  L 200 1240  L 200 1125  " fill-rule="nonzero" fill="#cccccc" stroke="none" />
    <path d="M 208 1133  L 387 1133  L 387 1232  L 208 1232  L 208 1133  " fill-rule="nonzero" fill="#ffffff" stroke="none" />
    <path d="M 310.025 1159.5  C 305.195 1159.5  301.4 1155.705  301.4 1150.875  C 301.4 1146.045  305.195 1142.25  310.025 1142.25  C 314.855 1142.25  318.65 1146.045  318.65 1150.875  C 318.65 1155.705  314.855 1159.5  310.025 1159.5  " fill-rule="nonzero" fill="#cccccc" stroke="none" />
    <path d="M 211 1229  L 211 1177.85  L 254.25 1154.6  L 314.8 1196.09230769231  L 349.4 1168.55  L 384 1196.09230769231  L 384 1229  L 211 1229  " fill-rule="nonzero" fill="#169bd5" stroke="none" />
  </g>
</svg>