<?xml version="1.0" encoding="utf-8"?>
<svg version="1.1" xmlns:xlink="http://www.w3.org/1999/xlink" width="400px" height="283px" xmlns="http://www.w3.org/2000/svg">
  <g transform="matrix(1 0 0 1 -600 -607 )">
    <path d="M 600 607  L 1000 607  L 1000 890  L 600 890  L 600 607  " fill-rule="nonzero" fill="#cccccc" stroke="none" />
    <path d="M 620 627  L 980 627  L 980 870  L 620 870  L 620 627  " fill-rule="nonzero" fill="#ffffff" stroke="none" />
    <path d="M 829.225 691.9  C 817.339 691.9  808 682.561  808 670.675  C 808 658.789  817.339 649.45  829.225 649.45  C 841.111 649.45  850.45 658.789  850.45 670.675  C 850.45 682.561  841.111 691.9  829.225 691.9  " fill-rule="nonzero" fill="#cccccc" stroke="none" />
    <path d="M 627 863  L 627 737.05  L 713.5 679.8  L 834.6 765.7895  L 903.8 714.15  L 973 765.7895  L 973 863  L 627 863  " fill-rule="nonzero" fill="#169bd5" stroke="none" />
  </g>
</svg>