<?xml version="1.0" encoding="utf-8"?>
<svg version="1.1" xmlns:xlink="http://www.w3.org/1999/xlink" width="173px" height="35px" xmlns="http://www.w3.org/2000/svg">
  <defs>
    <mask fill="white" id="clip143">
      <path d="M 0 35  L 0 0  L 66.4931972789116 0  L 116.510204081633 0  L 173 0  L 173 35  L 87.0884353741497 35  L 0 35  Z " fill-rule="evenodd" />
    </mask>
  </defs>
  <g transform="matrix(1 0 0 1 -1060 -1283 )">
    <path d="M 0 35  L 0 0  L 66.4931972789116 0  L 116.510204081633 0  L 173 0  L 173 35  L 87.0884353741497 35  L 0 35  Z " fill-rule="nonzero" fill="#ffffff" stroke="none" fill-opacity="0" transform="matrix(1 0 0 1 1060 1283 )" />
    <path d="M 0 35  L 0 0  L 66.4931972789116 0  L 116.510204081633 0  L 173 0  L 173 35  L 87.0884353741497 35  L 0 35  Z " stroke-width="4" stroke="#797979" fill="none" transform="matrix(1 0 0 1 1060 1283 )" mask="url(#clip143)" />
  </g>
</svg>